<svg id="visual" viewBox="0 0 900 600" width="900" height="600" xmlns="http://www.w3.org/2000/svg" xmlns:xlink="http://www.w3.org/1999/xlink" version="1.1"><rect x="0" y="0" width="900" height="600" fill="#7088a0"></rect><path d="M0 108L13.7 131.3C27.3 154.7 54.7 201.3 82 208.5C109.3 215.7 136.7 183.3 163.8 180.2C191 177 218 203 245.2 216.3C272.3 229.7 299.7 230.3 327 218.7C354.3 207 381.7 183 409 180.8C436.3 178.7 463.7 198.3 491 196.8C518.3 195.3 545.7 172.7 573 153.5C600.3 134.3 627.7 118.7 654.8 137.2C682 155.7 709 208.3 736.2 208.7C763.3 209 790.7 157 818 156.2C845.3 155.3 872.7 205.7 886.3 230.8L900 256L900 0L886.3 0C872.7 0 845.3 0 818 0C790.7 0 763.3 0 736.2 0C709 0 682 0 654.8 0C627.7 0 600.3 0 573 0C545.7 0 518.3 0 491 0C463.7 0 436.3 0 409 0C381.7 0 354.3 0 327 0C299.7 0 272.3 0 245.2 0C218 0 191 0 163.8 0C136.7 0 109.3 0 82 0C54.7 0 27.3 0 13.7 0L0 0Z" fill="#525280" stroke-linecap="round" stroke-linejoin="miter"></path></svg>