<svg id="visual" viewBox="0 0 900 600" width="900" height="600" xmlns="http://www.w3.org/2000/svg" xmlns:xlink="http://www.w3.org/1999/xlink" version="1.1"><rect x="0" y="0" width="900" height="600" fill="#010a13"></rect><path d="M0 214L13.7 207.7C27.3 201.3 54.7 188.7 82 197.5C109.3 206.3 136.7 236.7 163.8 224.5C191 212.3 218 157.7 245.2 131.7C272.3 105.7 299.7 108.3 327 118.8C354.3 129.3 381.7 147.7 409 161.8C436.3 176 463.7 186 491 181.3C518.3 176.7 545.7 157.3 573 161.5C600.3 165.7 627.7 193.3 654.8 187.3C682 181.3 709 141.7 736.2 144C763.3 146.3 790.7 190.7 818 198.2C845.3 205.7 872.7 176.3 886.3 161.7L900 147L900 0L886.3 0C872.7 0 845.3 0 818 0C790.7 0 763.3 0 736.2 0C709 0 682 0 654.8 0C627.7 0 600.3 0 573 0C545.7 0 518.3 0 491 0C463.7 0 436.3 0 409 0C381.7 0 354.3 0 327 0C299.7 0 272.3 0 245.2 0C218 0 191 0 163.8 0C136.7 0 109.3 0 82 0C54.7 0 27.3 0 13.7 0L0 0Z" fill="#1c1c32" stroke-linecap="round" stroke-linejoin="miter"></path></svg>